<?xml version="1.0" encoding="UTF-8" standalone="no"?>
<!-- Created with Inkscape (http://www.inkscape.org/) -->

<svg
   version="1.1"
   id="svg1"
   width="120.88434"
   height="22.35733"
   viewBox="0 0 120.88434 22.35733"
   sodipodi:docname="bronze-sword.svg"
   xmlns:inkscape="http://www.inkscape.org/namespaces/inkscape"
   xmlns:sodipodi="http://sodipodi.sourceforge.net/DTD/sodipodi-0.dtd"
   xmlns="http://www.w3.org/2000/svg"
   xmlns:svg="http://www.w3.org/2000/svg">
  <defs
     id="defs1" />
  <sodipodi:namedview
     id="namedview1"
     pagecolor="#ffffff"
     bordercolor="#000000"
     borderopacity="0.25"
     inkscape:showpageshadow="2"
     inkscape:pageopacity="0.0"
     inkscape:pagecheckerboard="0"
     inkscape:deskcolor="#d1d1d1" />
  <g
     id="g1"
     inkscape:groupmode="layer"
     inkscape:label="1"
     transform="translate(-159.64465,-251.25276)">
    <path
       id="path2"
       d="M 118.9722,640.48988 V -79.510097 H 692.30552 V 640.48988 H 118.9722"
       style="fill:#ffffff;fill-opacity:1;fill-rule:nonzero;stroke:none;stroke-width:0.133333" />
    <path
       id="path37"
       d="m 191.16898,251.25276 c -2.89066,3.188 -3.72,7.89333 -1.84666,11.968 0.16533,0.35733 1.84666,-0.78933 1.84666,-0.78933 v -11.17867"
       style="fill:#040606;fill-opacity:1;fill-rule:nonzero;stroke:none;stroke-width:0.133333" />
    <path
       id="path38"
       d="m 191.16898,273.61009 c -2.89066,-3.18933 -3.72,-7.89466 -1.84666,-11.968 0.16533,-0.35866 1.84666,0.78934 1.84666,0.78934 v 11.17866"
       style="fill:#040606;fill-opacity:1;fill-rule:nonzero;stroke:none;stroke-width:0.133333" />
    <path
       id="path39"
       d="m 163.60098,266.47409 -3.26133,-2.78 c -0.92667,-0.78933 -0.92667,-2.22 0,-3.00933 l 3.26133,-2.78 c 0.52267,-0.44667 1.32934,-0.0733 1.32934,0.61467 v 7.34133 c 0,0.688 -0.80667,1.06 -1.32934,0.61333"
       style="fill:#040606;fill-opacity:1;fill-rule:nonzero;stroke:none;stroke-width:0.133333" />
    <path
       id="path40"
       d="m 167.63298,259.68743 h -1.18933 c -0.56533,0 -1.02533,0.46133 -1.02533,1.02666 v 2.95067 c 0,0.56667 0.46,1.02667 1.02533,1.02667 h 1.18933 c 0.56667,0 1.02667,-0.46 1.02667,-1.02667 v -2.95067 c 0,-0.56533 -0.46,-1.02666 -1.02667,-1.02666"
       style="fill:#040606;fill-opacity:1;fill-rule:nonzero;stroke:none;stroke-width:0.133333" />
    <path
       id="path41"
       d="m 169.22365,263.66476 c 0,0.56667 0.46133,1.02667 1.02667,1.02667 h 1.18933 c 0.56667,0 1.02667,-0.46 1.02667,-1.02667 v -2.95067 c 0,-0.56533 -0.46,-1.02666 -1.02667,-1.02666 h -1.18933 c -0.56534,0 -1.02667,0.46133 -1.02667,1.02666 v 2.95067"
       style="fill:#040606;fill-opacity:1;fill-rule:nonzero;stroke:none;stroke-width:0.133333" />
    <path
       id="path42"
       d="m 174.05698,259.68743 c -0.56666,0 -1.02666,0.46133 -1.02666,1.02666 v 2.95067 c 0,0.56667 0.46,1.02667 1.02666,1.02667 h 1.18934 c 0.56533,0 1.02666,-0.46 1.02666,-1.02667 v -2.95067 c 0,-0.56533 -0.46133,-1.02666 -1.02666,-1.02666 h -1.18934"
       style="fill:#040606;fill-opacity:1;fill-rule:nonzero;stroke:none;stroke-width:0.133333" />
    <path
       id="path43"
       d="m 176.83698,260.71409 v 2.95067 c 0,0.56667 0.46,1.02667 1.02667,1.02667 h 1.188 c 0.56667,0 1.02667,-0.46 1.02667,-1.02667 v -2.95067 c 0,-0.56533 -0.46,-1.02666 -1.02667,-1.02666 h -1.188 c -0.56667,0 -1.02667,0.46133 -1.02667,1.02666"
       style="fill:#040606;fill-opacity:1;fill-rule:nonzero;stroke:none;stroke-width:0.133333" />
    <path
       id="path44"
       d="m 182.85832,259.68743 h -1.18934 c -0.56533,0 -1.02666,0.46133 -1.02666,1.02666 v 2.95067 c 0,0.56667 0.46133,1.02667 1.02666,1.02667 h 1.18934 c 0.56666,0 1.02666,-0.46 1.02666,-1.02667 v -2.95067 c 0,-0.56533 -0.46,-1.02666 -1.02666,-1.02666"
       style="fill:#040606;fill-opacity:1;fill-rule:nonzero;stroke:none;stroke-width:0.133333" />
    <path
       id="path45"
       d="m 185.47565,264.69143 h 1.18933 c 0.56534,0 1.02667,-0.46 1.02667,-1.02667 v -2.95067 c 0,-0.56533 -0.46133,-1.02666 -1.02667,-1.02666 h -1.18933 c -0.56667,0 -1.02667,0.46133 -1.02667,1.02666 v 2.95067 c 0,0.56667 0.46,1.02667 1.02667,1.02667"
       style="fill:#040606;fill-opacity:1;fill-rule:nonzero;stroke:none;stroke-width:0.133333" />
    <path
       id="path46"
       d="m 191.16898,258.83143 v 7.41333 h -2.84933 v -7.41333 h 2.84933"
       style="fill:#040606;fill-opacity:1;fill-rule:nonzero;stroke:none;stroke-width:0.133333" />
    <path
       id="path47"
       d="m 193.95698,264.12476 54.11733,3.40133 21.056,-4.66 h -75.17333 v 1.25867"
       style="fill:#040606;fill-opacity:1;fill-rule:nonzero;stroke:none;stroke-width:0.133333" />
    <path
       id="path48"
       d="m 271.09964,262.43143 -0.096,-0.0213 v 0.0427 z"
       style="fill:#040606;fill-opacity:1;fill-rule:nonzero;stroke:none;stroke-width:0.133333" />
    <path
       id="path49"
       d="m 248.12498,268.18876 -54.82666,-3.44533 v -4.624 l 54.82666,-3.44667 26.02133,5.75867 z m -56.20533,-9.36533 v 7.21466 l 56.31466,3.54 32.29467,-7.14666 -32.29467,-7.14667 -56.31466,3.53867"
       style="fill:#040606;fill-opacity:1;fill-rule:nonzero;stroke:none;stroke-width:0.133333" />
    <path
       id="path50"
       d="m 248.07431,257.33543 -54.11733,3.40133 v 1.472 h 76.13733 l -22.02,-4.87333"
       style="fill:#040606;fill-opacity:1;fill-rule:nonzero;stroke:none;stroke-width:0.133333" />
  </g>
</svg>
