<?xml version="1.0" encoding="UTF-8" standalone="no"?>
<!-- Created with Inkscape (http://www.inkscape.org/) -->

<svg
   version="1.1"
   id="svg1"
   width="22.35733"
   height="120.88433"
   viewBox="0 0 22.35733 120.88433"
   sodipodi:docname="13187621_1602.m00.i103.n010.P.c25.243041878 Sword icons set. Ancient swords signs and crossed sword pictograms. Vector swords.eps"
   xmlns:inkscape="http://www.inkscape.org/namespaces/inkscape"
   xmlns:sodipodi="http://sodipodi.sourceforge.net/DTD/sodipodi-0.dtd"
   xmlns="http://www.w3.org/2000/svg"
   xmlns:svg="http://www.w3.org/2000/svg">
  <defs
     id="defs1" />
  <sodipodi:namedview
     id="namedview1"
     pagecolor="#ffffff"
     bordercolor="#000000"
     borderopacity="0.25"
     inkscape:showpageshadow="2"
     inkscape:pageopacity="0.0"
     inkscape:pagecheckerboard="0"
     inkscape:deskcolor="#d1d1d1" />
  <g
     id="g1"
     inkscape:groupmode="layer"
     inkscape:label="1"
     transform="translate(-412.51865,-34.495678)">
    <path
       id="path2"
       d="M 719.99998,573.33333 H 0 V 1.1e-5 H 719.99998 V 573.33333"
       style="fill:#ffffff;fill-opacity:1;fill-rule:nonzero;stroke:none;stroke-width:0.133333" />
    <path
       id="path37"
       d="m 434.87599,66.020009 c -3.188,-2.890666 -7.89333,-3.72 -11.968,-1.846666 -0.35733,0.165333 0.78933,1.846666 0.78933,1.846666 h 11.17867"
       style="fill:#040606;fill-opacity:1;fill-rule:nonzero;stroke:none;stroke-width:0.133333" />
    <path
       id="path38"
       d="m 412.51866,66.020009 c 3.18933,-2.890666 7.89466,-3.72 11.968,-1.846666 0.35866,0.165333 -0.78934,1.846666 -0.78934,1.846666 h -11.17866"
       style="fill:#040606;fill-opacity:1;fill-rule:nonzero;stroke:none;stroke-width:0.133333" />
    <path
       id="path39"
       d="m 419.65466,38.45201 2.78,-3.261333 c 0.78933,-0.926667 2.22,-0.926667 3.00933,0 l 2.78,3.261333 c 0.44667,0.522667 0.0733,1.329333 -0.61467,1.329333 h -7.34133 c -0.688,0 -1.06,-0.806666 -0.61333,-1.329333"
       style="fill:#040606;fill-opacity:1;fill-rule:nonzero;stroke:none;stroke-width:0.133333" />
    <path
       id="path40"
       d="m 426.44132,42.48401 v -1.189333 c 0,-0.565334 -0.46133,-1.025334 -1.02666,-1.025334 h -2.95067 c -0.56667,0 -1.02667,0.46 -1.02667,1.025334 v 1.189333 c 0,0.566667 0.46,1.026667 1.02667,1.026667 h 2.95067 c 0.56533,0 1.02666,-0.46 1.02666,-1.026667"
       style="fill:#040606;fill-opacity:1;fill-rule:nonzero;stroke:none;stroke-width:0.133333" />
    <path
       id="path41"
       d="m 422.46399,44.074677 c -0.56667,0 -1.02667,0.461333 -1.02667,1.026666 v 1.189334 c 0,0.566666 0.46,1.026666 1.02667,1.026666 h 2.95067 c 0.56533,0 1.02666,-0.46 1.02666,-1.026666 v -1.189334 c 0,-0.565333 -0.46133,-1.026666 -1.02666,-1.026666 h -2.95067"
       style="fill:#040606;fill-opacity:1;fill-rule:nonzero;stroke:none;stroke-width:0.133333" />
    <path
       id="path42"
       d="m 426.44132,48.90801 c 0,-0.566667 -0.46133,-1.026667 -1.02666,-1.026667 h -2.95067 c -0.56667,0 -1.02667,0.46 -1.02667,1.026667 v 1.189333 c 0,0.565333 0.46,1.026667 1.02667,1.026667 h 2.95067 c 0.56533,0 1.02666,-0.461334 1.02666,-1.026667 V 48.90801"
       style="fill:#040606;fill-opacity:1;fill-rule:nonzero;stroke:none;stroke-width:0.133333" />
    <path
       id="path43"
       d="m 425.41466,51.68801 h -2.95067 c -0.56667,0 -1.02667,0.46 -1.02667,1.026666 v 1.188 c 0,0.566667 0.46,1.026667 1.02667,1.026667 h 2.95067 c 0.56533,0 1.02666,-0.46 1.02666,-1.026667 v -1.188 c 0,-0.566666 -0.46133,-1.026666 -1.02666,-1.026666"
       style="fill:#040606;fill-opacity:1;fill-rule:nonzero;stroke:none;stroke-width:0.133333" />
    <path
       id="path44"
       d="M 426.44132,57.709343 V 56.52001 c 0,-0.565334 -0.46133,-1.026667 -1.02666,-1.026667 h -2.95067 c -0.56667,0 -1.02667,0.461333 -1.02667,1.026667 v 1.189333 c 0,0.566667 0.46,1.026667 1.02667,1.026667 h 2.95067 c 0.56533,0 1.02666,-0.46 1.02666,-1.026667"
       style="fill:#040606;fill-opacity:1;fill-rule:nonzero;stroke:none;stroke-width:0.133333" />
    <path
       id="path45"
       d="m 421.43732,60.326676 v 1.189333 c 0,0.565334 0.46,1.026667 1.02667,1.026667 h 2.95067 c 0.56533,0 1.02666,-0.461333 1.02666,-1.026667 v -1.189333 c 0,-0.566666 -0.46133,-1.026666 -1.02666,-1.026666 h -2.95067 c -0.56667,0 -1.02667,0.46 -1.02667,1.026666"
       style="fill:#040606;fill-opacity:1;fill-rule:nonzero;stroke:none;stroke-width:0.133333" />
    <path
       id="path46"
       d="m 427.29732,66.020009 h -7.41333 v -2.849333 h 7.41333 v 2.849333"
       style="fill:#040606;fill-opacity:1;fill-rule:nonzero;stroke:none;stroke-width:0.133333" />
    <path
       id="path47"
       d="m 422.00399,68.808009 -3.40133,54.117331 4.66,21.056 V 68.808009 h -1.25867"
       style="fill:#040606;fill-opacity:1;fill-rule:nonzero;stroke:none;stroke-width:0.133333" />
    <path
       id="path48"
       d="m 423.69732,145.95067 0.0213,-0.096 h -0.0427 z"
       style="fill:#040606;fill-opacity:1;fill-rule:nonzero;stroke:none;stroke-width:0.133333" />
    <path
       id="path49"
       d="m 417.93999,122.97601 3.44533,-54.826667 h 4.624 l 3.44667,54.826667 -5.75867,26.02133 z m 9.36533,-56.205334 h -7.21466 l -3.54,56.314664 7.14666,32.29467 7.14667,-32.29467 -3.53867,-56.314664"
       style="fill:#040606;fill-opacity:1;fill-rule:nonzero;stroke:none;stroke-width:0.133333" />
    <path
       id="path50"
       d="m 428.79332,122.92534 -3.40133,-54.117331 h -1.472 v 76.137331 l 4.87333,-22.02"
       style="fill:#040606;fill-opacity:1;fill-rule:nonzero;stroke:none;stroke-width:0.133333" />
  </g>
</svg>
