<?xml version="1.0" encoding="UTF-8" standalone="no"?>
<!-- Created with Inkscape (http://www.inkscape.org/) -->

<svg
   version="1.1"
   id="svg1"
   width="128.07199"
   height="33.064117"
   viewBox="0 0 128.07199 33.064117"
   sodipodi:docname="iron-sword.svg"
   xmlns:inkscape="http://www.inkscape.org/namespaces/inkscape"
   xmlns:sodipodi="http://sodipodi.sourceforge.net/DTD/sodipodi-0.dtd"
   xmlns="http://www.w3.org/2000/svg"
   xmlns:svg="http://www.w3.org/2000/svg">
  <defs
     id="defs1" />
  <sodipodi:namedview
     id="namedview1"
     pagecolor="#ffffff"
     bordercolor="#000000"
     borderopacity="0.25"
     inkscape:showpageshadow="2"
     inkscape:pageopacity="0.0"
     inkscape:pagecheckerboard="0"
     inkscape:deskcolor="#d1d1d1" />
  <g
     id="g1"
     inkscape:groupmode="layer"
     inkscape:label="1"
     transform="translate(-255.07465,-542.49735)">
    <path
       id="path2"
       d="M 646.66665,-73.33332 V 646.66666 H 73.333331 V -73.33332 H 646.66665"
       style="fill:#ffffff;fill-opacity:1;fill-rule:nonzero;stroke:none;stroke-width:0.133333" />
    <path
       id="path415"
       d="m 282.77466,559.02973 c -3.572,14.952 6.09867,16.53173 9.09733,16.53173 1.45334,0 2.632,-1.17866 2.632,-2.63226 0,-1.45427 -1.17866,-2.6328 -2.632,-2.6328 -1.45466,0 -2.63333,1.17853 -2.63333,2.6328 0,0.038 0.001,0.076 0.003,0.11346 -5.55734,-2.5864 -1.40667,-14.01293 -1.40667,-14.01293 0,0 -4.15067,-11.42667 1.40667,-14.0136 -0.001,0.0375 -0.003,0.0755 -0.003,0.11413 0,1.4536 1.17867,2.63227 2.63333,2.63227 1.45334,0 2.632,-1.17867 2.632,-2.63227 0,-1.45426 -1.17866,-2.63293 -2.632,-2.63293 -2.99866,0 -12.66933,1.57973 -9.09733,16.5324"
       style="fill:#040606;fill-opacity:1;fill-rule:nonzero;stroke:none;stroke-width:0.133333" />
    <path
       id="path416"
       d="m 285.99866,559.02973 -0.23867,4.338 0.94267,-0.005 c 0.44,-2.42973 1.132,-4.33333 1.132,-4.33333 0,0 -0.692,-1.90427 -1.132,-4.33334 l -0.94267,-0.005 0.23867,4.33814"
       style="fill:#040606;fill-opacity:1;fill-rule:nonzero;stroke:none;stroke-width:0.133333" />
    <path
       id="path417"
       d="m 288.58133,558.30053 59.09599,0.0651 c 4.36134,0.0265 8.65467,0.25213 12.62267,0.66413 v 0 c -3.968,0.41147 -8.26133,0.63747 -12.62267,0.66347 l -59.09733,0.0651 c -0.20933,0.64587 -0.61866,1.99747 -0.92,3.6 l 78.52267,-0.3812 c 5.86266,-0.15733 11.632,-1.5 16.964,-3.94733 v 0 c -5.332,-2.448 -11.10134,-3.79067 -16.964,-3.948 l -78.52133,-0.38067 c 0.30133,1.60107 0.70933,2.95307 0.92,3.59947"
       style="fill:#040606;fill-opacity:1;fill-rule:nonzero;stroke:none;stroke-width:0.133333" />
    <path
       id="path418"
       d="m 264.33866,561.43173 v -2.402 h 19.89067 v 4.338 l -19.89067,-1.936"
       style="fill:#040606;fill-opacity:1;fill-rule:nonzero;stroke:none;stroke-width:0.133333" />
    <path
       id="path419"
       d="m 264.33866,556.62706 v 2.40267 h 19.89067 v -4.33813 l -19.89067,1.93546"
       style="fill:#040606;fill-opacity:1;fill-rule:nonzero;stroke:none;stroke-width:0.133333" />
    <path
       id="path420"
       d="m 261.25466,552.84946 c 3.41333,0 6.18,2.76667 6.18,6.18027 0,3.41293 -2.76667,6.1796 -6.18,6.1796 -3.41333,0 -6.18,-2.76667 -6.18,-6.1796 0,-3.4136 2.76667,-6.18027 6.18,-6.18027"
       style="fill:#040606;fill-opacity:1;fill-rule:nonzero;stroke:none;stroke-width:0.133333" />
  </g>
</svg>
