<?xml version="1.0" encoding="UTF-8" standalone="no"?>
<!-- Created with Inkscape (http://www.inkscape.org/) -->

<svg
   version="1.1"
   id="svg1"
   width="33.064125"
   height="128.07202"
   viewBox="0 0 33.064125 128.07202"
   sodipodi:docname="13187621_1602.m00.i103.n010.P.c25.243041878 Sword icons set. Ancient swords signs and crossed sword pictograms. Vector swords.eps"
   xmlns:inkscape="http://www.inkscape.org/namespaces/inkscape"
   xmlns:sodipodi="http://sodipodi.sourceforge.net/DTD/sodipodi-0.dtd"
   xmlns="http://www.w3.org/2000/svg"
   xmlns:svg="http://www.w3.org/2000/svg">
  <defs
     id="defs1" />
  <sodipodi:namedview
     id="namedview1"
     pagecolor="#ffffff"
     bordercolor="#000000"
     borderopacity="0.25"
     inkscape:showpageshadow="2"
     inkscape:pageopacity="0.0"
     inkscape:pagecheckerboard="0"
     inkscape:deskcolor="#d1d1d1" />
  <g
     id="g1"
     inkscape:groupmode="layer"
     inkscape:label="1"
     transform="translate(-71.105202,-181.74133)">
    <path
       id="path2"
       d="M 719.99998,573.33333 H 0 V 1.1e-5 H 719.99998 V 573.33333"
       style="fill:#ffffff;fill-opacity:1;fill-rule:nonzero;stroke:none;stroke-width:0.133333" />
    <path
       id="path415"
       d="m 87.636931,209.44134 c -14.951999,-3.572 -16.531733,6.09867 -16.531733,9.09733 0,1.45334 1.178667,2.632 2.632267,2.632 1.454266,0 2.6328,-1.17866 2.6328,-2.632 0,-1.45466 -1.178534,-2.63333 -2.6328,-2.63333 -0.038,0 -0.076,0.001 -0.113467,0.003 2.5864,-5.55734 14.012933,-1.40667 14.012933,-1.40667 0,0 11.426667,-4.15067 14.013599,1.40667 -0.0375,-0.001 -0.0755,-0.003 -0.11413,-0.003 -1.4536,0 -2.632269,1.17867 -2.632269,2.63333 0,1.45334 1.178669,2.632 2.632269,2.632 1.45426,0 2.63293,-1.17866 2.63293,-2.632 0,-2.99866 -1.57973,-12.66933 -16.532399,-9.09733"
       style="fill:#040606;fill-opacity:1;fill-rule:nonzero;stroke:none;stroke-width:0.133333" />
    <path
       id="path416"
       d="m 87.636931,212.66534 -4.338,-0.23867 0.0047,0.94267 c 2.429733,0.44 4.333333,1.132 4.333333,1.132 0,0 1.904267,-0.692 4.333333,-1.132 l 0.0048,-0.94267 -4.338133,0.23867"
       style="fill:#040606;fill-opacity:1;fill-rule:nonzero;stroke:none;stroke-width:0.133333" />
    <path
       id="path417"
       d="m 88.366131,215.24801 -0.06507,59.09599 c -0.02653,4.36134 -0.252133,8.65467 -0.664133,12.62267 v 0 c -0.411467,-3.968 -0.637467,-8.26133 -0.663467,-12.62267 l -0.06507,-59.09733 c -0.645867,-0.20933 -1.997467,-0.61866 -3.6,-0.92 l 0.3812,78.52267 c 0.157333,5.86266 1.5,11.632 3.947333,16.964 v 0 c 2.448,-5.332 3.790667,-11.10134 3.948,-16.964 l 0.380667,-78.52133 c -1.601067,0.30133 -2.953067,0.70933 -3.599467,0.92"
       style="fill:#040606;fill-opacity:1;fill-rule:nonzero;stroke:none;stroke-width:0.133333" />
    <path
       id="path418"
       d="m 85.234931,191.00534 h 2.402 v 19.89067 h -4.338 l 1.936,-19.89067"
       style="fill:#040606;fill-opacity:1;fill-rule:nonzero;stroke:none;stroke-width:0.133333" />
    <path
       id="path419"
       d="m 90.039598,191.00534 h -2.402667 v 19.89067 h 4.338133 l -1.935466,-19.89067"
       style="fill:#040606;fill-opacity:1;fill-rule:nonzero;stroke:none;stroke-width:0.133333" />
    <path
       id="path420"
       d="m 93.817198,187.92134 c 0,3.41333 -2.766667,6.18 -6.180267,6.18 -3.412933,0 -6.1796,-2.76667 -6.1796,-6.18 0,-3.41333 2.766667,-6.18 6.1796,-6.18 3.4136,0 6.180267,2.76667 6.180267,6.18"
       style="fill:#040606;fill-opacity:1;fill-rule:nonzero;stroke:none;stroke-width:0.133333" />
  </g>
</svg>
