<?xml version="1.0" encoding="UTF-8" standalone="no"?>
<!-- Created with Inkscape (http://www.inkscape.org/) -->

<svg
   version="1.1"
   id="svg1"
   width="92.689331"
   height="31.902557"
   viewBox="0 0 92.689331 31.902557"
   sodipodi:docname="stone-sword.svg"
   xmlns:inkscape="http://www.inkscape.org/namespaces/inkscape"
   xmlns:sodipodi="http://sodipodi.sourceforge.net/DTD/sodipodi-0.dtd"
   xmlns="http://www.w3.org/2000/svg"
   xmlns:svg="http://www.w3.org/2000/svg">
  <defs
     id="defs1" />
  <sodipodi:namedview
     id="namedview1"
     pagecolor="#ffffff"
     bordercolor="#000000"
     borderopacity="0.25"
     inkscape:showpageshadow="2"
     inkscape:pageopacity="0.0"
     inkscape:pagecheckerboard="0"
     inkscape:deskcolor="#d1d1d1" />
  <g
     id="g1"
     inkscape:groupmode="layer"
     inkscape:label="1"
     transform="translate(-136.024,-502.91465)">
    <path
       id="path2"
       d="M 646.66665,-73.33332 V 646.66666 H 73.33333 V -73.33332 h 573.33332"
       style="fill:#ffffff;fill-opacity:1;fill-rule:nonzero;stroke:none;stroke-width:0.133333" />
    <path
       id="path409"
       d="m 162.87199,515.39733 c -1.59333,-2.356 -2.564,-6.224 -0.75333,-12.48267 0,0 -9.612,7.01734 -2.78533,15.95094 -6.82667,8.93386 2.78533,15.9516 2.78533,15.9516 -1.81067,-6.25894 -0.84,-10.12707 0.75333,-12.4828 1.41334,-2.09174 1.41334,-4.84534 0,-6.93707"
       style="fill:#040606;fill-opacity:1;fill-rule:nonzero;stroke:none;stroke-width:0.133333" />
    <path
       id="path410"
       d="m 161.75199,522.95573 c 0.24667,0 0.49067,0.002 0.73334,0.005 0.124,-0.2192 0.25333,-0.42867 0.38666,-0.626 0.70667,-1.04587 1.06,-2.25734 1.06,-3.4688 0,-1.21094 -0.35333,-2.4224 -1.06,-3.46827 -0.13333,-0.19733 -0.26266,-0.40667 -0.38666,-0.626 -0.24267,0.003 -0.48667,0.005 -0.73334,0.005 v 8.17973"
       style="fill:#040606;fill-opacity:1;fill-rule:nonzero;stroke:none;stroke-width:0.133333" />
    <path
       id="path411"
       d="m 136.024,518.8656 c 0,4.0328 3.268,7.3016 7.3,7.3016 V 511.564 c -4.032,0 -7.3,3.26933 -7.3,7.3016"
       style="fill:#040606;fill-opacity:1;fill-rule:nonzero;stroke:none;stroke-width:0.133333" />
    <path
       id="path412"
       d="m 141.88266,521.4052 16.23467,3.0088 3.63466,-5.5484 h -19.86933 v 2.5396"
       style="fill:#040606;fill-opacity:1;fill-rule:nonzero;stroke:none;stroke-width:0.133333" />
    <path
       id="path413"
       d="m 141.88266,516.326 16.23467,-3.00867 3.63466,5.54827 h -19.86933 v -2.5396"
       style="fill:#040606;fill-opacity:1;fill-rule:nonzero;stroke:none;stroke-width:0.133333" />
    <path
       id="path414"
       d="m 197.59866,518.40986 c 0.38,0.002 0.75733,0.004 1.132,0.006 0.376,0.004 0.75067,0.008 1.12133,0.012 0.74267,0.008 1.476,0.0161 2.19867,0.024 1.444,0.0115 2.84,0.0391 4.16267,0.0629 0.66133,0.0125 1.30533,0.0245 1.928,0.0365 0.62266,0.0151 1.224,0.0301 1.80133,0.0443 1.156,0.026 2.21467,0.0593 3.15333,0.0901 0.93734,0.0276 1.756,0.0609 2.42934,0.0864 0.67466,0.024 1.204,0.0516 1.564,0.0667 0.36133,0.0177 0.55333,0.0265 0.55333,0.0265 0,0 -0.192,0.01 -0.55333,0.0271 -0.36,0.0152 -0.88934,0.0428 -1.564,0.0667 -0.67334,0.0256 -1.492,0.0595 -2.42934,0.0865 -0.93866,0.0301 -1.99733,0.064 -3.15333,0.0901 -0.57733,0.014 -1.17867,0.0291 -1.80133,0.0447 -0.62267,0.0115 -1.26667,0.0235 -1.928,0.036 -1.32267,0.024 -2.71867,0.0516 -4.16267,0.0631 -0.72267,0.008 -1.456,0.0161 -2.19867,0.0239 -0.37066,0.004 -0.74533,0.008 -1.12133,0.012 -0.37467,0.002 -0.752,0.004 -1.132,0.006 -1.516,0.005 -3.056,0.009 -4.596,0.0141 -1.54,-0.005 -3.08,-0.01 -4.596,-0.0147 -1.516,-0.006 -3.00667,-0.0297 -4.45067,-0.0427 -1.444,-0.0109 -2.84,-0.0401 -4.16266,-0.0631 -0.66267,-0.0125 -1.30533,-0.0249 -1.92933,-0.0364 -0.62134,-0.0156 -1.224,-0.0303 -1.80134,-0.0443 -1.15466,-0.0261 -2.21333,-0.06 -3.152,-0.0901 -0.93867,-0.0271 -1.756,-0.0604 -2.42933,-0.086 -0.67467,-0.0239 -1.204,-0.0509 -1.56534,-0.0661 -0.36133,-0.0177 -0.55333,-0.0271 -0.55333,-0.0271 0,0 0.192,-0.009 0.55333,-0.0265 0.36134,-0.0151 0.89067,-0.0421 1.56534,-0.0661 0.67333,-0.0256 1.49066,-0.0589 2.42933,-0.086 0.93867,-0.0301 1.99734,-0.064 3.152,-0.0896 0.57734,-0.0145 1.18,-0.0291 1.80134,-0.0447 0.624,-0.0115 1.26666,-0.024 1.92933,-0.0365 1.32266,-0.0229 2.71866,-0.0521 4.16266,-0.0631 1.444,-0.0129 2.93467,-0.0369 4.45067,-0.0427 1.516,-0.005 3.056,-0.009 4.596,-0.0145 1.54,0.005 3.08,0.009 4.596,0.014 z m -34.06933,-3.65053 c 0.0667,0.10893 0.136,0.21667 0.20666,0.32187 0.75734,1.1204 1.15734,2.42866 1.15734,3.7844 0,1.35626 -0.4,2.66466 -1.15734,3.78493 -0.0707,0.1052 -0.14,0.21307 -0.20666,0.32187 13.10133,0.30986 22.71733,4.9192 38.38933,4.9192 15.09067,0 26.79467,-9.026 26.79467,-9.026 0,0 -11.704,-9.0256 -26.79467,-9.0256 -15.672,0 -25.288,4.60946 -38.38933,4.91933"
       style="fill:#040606;fill-opacity:1;fill-rule:nonzero;stroke:none;stroke-width:0.133333" />
  </g>
</svg>
