<?xml version="1.0" encoding="UTF-8" standalone="no"?>
<!-- Created with Inkscape (http://www.inkscape.org/) -->

<svg
   version="1.1"
   id="svg1"
   width="31.97197"
   height="127.31066"
   viewBox="0 0 31.97197 127.31066"
   sodipodi:docname="13187621_1602.m00.i103.n010.P.c25.243041878 Sword icons set. Ancient swords signs and crossed sword pictograms. Vector swords.eps"
   xmlns:inkscape="http://www.inkscape.org/namespaces/inkscape"
   xmlns:sodipodi="http://sodipodi.sourceforge.net/DTD/sodipodi-0.dtd"
   xmlns="http://www.w3.org/2000/svg"
   xmlns:svg="http://www.w3.org/2000/svg">
  <defs
     id="defs1" />
  <sodipodi:namedview
     id="namedview1"
     pagecolor="#ffffff"
     bordercolor="#000000"
     borderopacity="0.25"
     inkscape:showpageshadow="2"
     inkscape:pageopacity="0.0"
     inkscape:pagecheckerboard="0"
     inkscape:deskcolor="#d1d1d1" />
  <g
     id="g1"
     inkscape:groupmode="layer"
     inkscape:label="1"
     transform="translate(-69.543793,-28.069344)">
    <path
       id="path2"
       d="M 719.99998,573.33333 H 0 V 1.1e-5 H 719.99998 V 573.33333"
       style="fill:#ffffff;fill-opacity:1;fill-rule:nonzero;stroke:none;stroke-width:0.133333" />
    <path
       id="path3"
       d="m 101.19733,59.697343 c -4.182799,-3.792 -10.228532,-5.052 -15.667599,-3.045333 -5.439066,-2.006667 -11.484933,-0.746667 -15.667733,3.045333 -0.4896,0.444 -0.402133,1.236 0.1792,1.550666 0.276534,0.149334 0.611467,0.157334 0.889067,0.0093 4.158266,-2.217333 10.242666,-2.208 14.771333,-0.08667 4.529066,-2.121333 10.2692,-2.130666 14.427602,0.08667 0.2776,0.148 0.61253,0.14 0.88906,-0.0093 v 0 c 0.5812,-0.314666 0.6692,-1.106666 0.17907,-1.550666"
       style="fill:#040606;fill-opacity:1;fill-rule:nonzero;stroke:none;stroke-width:0.133333" />
    <path
       id="path4"
       d="m 85.529731,129.95467 c -0.411466,-3.968 -0.6376,-8.26133 -0.664133,-12.624 l -0.06093,-55.527994 c -1.600534,-0.673333 -3.433334,-1.097333 -5.302534,-1.229333 l 2.311467,77.946667 c 0.171867,5.80266 1.432267,11.52133 3.716133,16.86 v -25.42534 0"
       style="fill:#040606;fill-opacity:1;fill-rule:nonzero;stroke:none;stroke-width:0.133333" />
    <path
       id="path5"
       d="m 86.193731,117.33067 c -0.02653,4.36267 -0.252,8.656 -0.664,12.624 v 25.42534 c 2.283867,-5.33867 3.544267,-11.05734 3.716667,-16.86 l 2.310933,-77.932001 c -1.8604,0.157334 -3.668267,0.621334 -5.3032,1.364 l -0.0604,55.378661"
       style="fill:#040606;fill-opacity:1;fill-rule:nonzero;stroke:none;stroke-width:0.133333" />
    <path
       id="path6"
       d="m 89.800531,58.534676 h -8.5412 V 38.15201 h 8.5412 v 20.382666"
       style="fill:#040606;fill-opacity:1;fill-rule:nonzero;stroke:none;stroke-width:0.133333" />
    <path
       id="path7"
       d="m 77.658398,35.941343 7.871333,-7.871999 7.871333,7.871999 -7.871333,7.870667 -7.871333,-7.870667"
       style="fill:#040606;fill-opacity:1;fill-rule:nonzero;stroke:none;stroke-width:0.133333" />
  </g>
</svg>
