<?xml version="1.0" encoding="UTF-8" standalone="no"?>
<!-- Created with Inkscape (http://www.inkscape.org/) -->

<svg
   version="1.1"
   id="svg1"
   width="127.31067"
   height="31.971973"
   viewBox="0 0 127.31067 31.971973"
   sodipodi:docname="wood-sword.svg"
   xmlns:inkscape="http://www.inkscape.org/namespaces/inkscape"
   xmlns:sodipodi="http://sodipodi.sourceforge.net/DTD/sodipodi-0.dtd"
   xmlns="http://www.w3.org/2000/svg"
   xmlns:svg="http://www.w3.org/2000/svg">
  <defs
     id="defs1" />
  <sodipodi:namedview
     id="namedview1"
     pagecolor="#ffffff"
     bordercolor="#000000"
     borderopacity="0.25"
     inkscape:showpageshadow="2"
     inkscape:pageopacity="0.0"
     inkscape:pagecheckerboard="0"
     inkscape:deskcolor="#d1d1d1" />
  <g
     id="g1"
     inkscape:groupmode="layer"
     inkscape:label="1"
     transform="translate(-21.874448,-75.73869)">
    <path
       id="path2"
       d="M 719.99998,573.33333 H 0 V 1.1e-5 H 719.99998 V 573.33333"
       style="fill:#ffffff;fill-opacity:1;fill-rule:nonzero;stroke:none;stroke-width:0.133333" />
    <path
       id="path3"
       d="m 53.502445,76.057126 c -3.792,4.182799 -5.052,10.228532 -3.045333,15.667599 -2.006667,5.439066 -0.746667,11.484935 3.045333,15.667735 0.444,0.4896 1.236,0.40213 1.550666,-0.1792 0.149334,-0.27654 0.157334,-0.61147 0.0093,-0.88907 -2.217333,-4.15827 -2.208,-10.242665 -0.08667,-14.771332 -2.121333,-4.529066 -2.130666,-10.2692 0.08667,-14.427602 0.148,-0.2776 0.14,-0.61253 -0.0093,-0.88906 v 0 c -0.314666,-0.5812 -1.106666,-0.6692 -1.550666,-0.17907"
       style="fill:#040606;fill-opacity:1;fill-rule:nonzero;stroke:none;stroke-width:0.133333" />
    <path
       id="path4"
       d="m 123.75977,91.724725 c -3.968,0.411466 -8.26133,0.6376 -12.624,0.664133 l -55.527992,0.06093 c -0.673333,1.600534 -1.097333,3.433334 -1.229333,5.302534 l 77.946665,-2.311467 c 5.80266,-0.171867 11.52133,-1.432267 16.86,-3.716133 h -25.42534 v 0"
       style="fill:#040606;fill-opacity:1;fill-rule:nonzero;stroke:none;stroke-width:0.133333" />
    <path
       id="path5"
       d="m 111.13577,91.060725 c 4.36267,0.02653 8.656,0.252 12.624,0.664 h 25.42534 c -5.33867,-2.283867 -11.05734,-3.544267 -16.86,-3.716667 L 54.393111,85.697125 c 0.157334,1.8604 0.621334,3.668267 1.364,5.3032 l 55.378659,0.0604"
       style="fill:#040606;fill-opacity:1;fill-rule:nonzero;stroke:none;stroke-width:0.133333" />
    <path
       id="path6"
       d="m 52.339778,87.453925 v 8.5412 H 31.957112 v -8.5412 h 20.382666"
       style="fill:#040606;fill-opacity:1;fill-rule:nonzero;stroke:none;stroke-width:0.133333" />
    <path
       id="path7"
       d="m 29.746445,99.596058 -7.871999,-7.871333 7.871999,-7.871333 7.870667,7.871333 -7.870667,7.871333"
       style="fill:#040606;fill-opacity:1;fill-rule:nonzero;stroke:none;stroke-width:0.133333" />
  </g>
</svg>
