<?xml version="1.0" encoding="UTF-8" standalone="no"?>
<!-- Created with Inkscape (http://www.inkscape.org/) -->

<svg
   version="1.1"
   id="svg1"
   width="31.902542"
   height="92.689323"
   viewBox="0 0 31.902542 92.689323"
   sodipodi:docname="13187621_1602.m00.i103.n010.P.c25.243041878 Sword icons set. Ancient swords signs and crossed sword pictograms. Vector swords.eps"
   xmlns:inkscape="http://www.inkscape.org/namespaces/inkscape"
   xmlns:sodipodi="http://sodipodi.sourceforge.net/DTD/sodipodi-0.dtd"
   xmlns="http://www.w3.org/2000/svg"
   xmlns:svg="http://www.w3.org/2000/svg">
  <defs
     id="defs1" />
  <sodipodi:namedview
     id="namedview1"
     pagecolor="#ffffff"
     bordercolor="#000000"
     borderopacity="0.25"
     inkscape:showpageshadow="2"
     inkscape:pageopacity="0.0"
     inkscape:pagecheckerboard="0"
     inkscape:deskcolor="#d1d1d1" />
  <g
     id="g1"
     inkscape:groupmode="layer"
     inkscape:label="1"
     transform="translate(-111.84946,-62.690678)">
    <path
       id="path2"
       d="M 719.99998,573.33333 H 0 V 1.1e-5 H 719.99998 V 573.33333"
       style="fill:#ffffff;fill-opacity:1;fill-rule:nonzero;stroke:none;stroke-width:0.133333" />
    <path
       id="path409"
       d="m 131.26933,89.538675 c 2.356,-1.593333 6.224,-2.564 12.48267,-0.753333 0,0 -7.01734,-9.612 -15.95094,-2.785333 -8.93386,-6.826667 -15.9516,2.785333 -15.9516,2.785333 6.25894,-1.810667 10.12707,-0.84 12.4828,0.753333 2.09174,1.413334 4.84534,1.413334 6.93707,0"
       style="fill:#040606;fill-opacity:1;fill-rule:nonzero;stroke:none;stroke-width:0.133333" />
    <path
       id="path410"
       d="m 123.71093,88.418675 c 0,0.246667 -0.002,0.490667 -0.005,0.733334 0.2192,0.124 0.42867,0.253333 0.626,0.386666 1.04587,0.706667 2.25734,1.06 3.4688,1.06 1.21094,0 2.4224,-0.353333 3.46827,-1.06 0.19733,-0.133333 0.40667,-0.262666 0.626,-0.386666 -0.003,-0.242667 -0.005,-0.486667 -0.005,-0.733334 h -8.17973"
       style="fill:#040606;fill-opacity:1;fill-rule:nonzero;stroke:none;stroke-width:0.133333" />
    <path
       id="path411"
       d="m 127.80106,62.690676 c -4.0328,0 -7.3016,3.268 -7.3016,7.3 h 14.6032 c 0,-4.032 -3.26933,-7.3 -7.3016,-7.3"
       style="fill:#040606;fill-opacity:1;fill-rule:nonzero;stroke:none;stroke-width:0.133333" />
    <path
       id="path412"
       d="m 125.26146,68.549343 -3.0088,16.234666 5.5484,3.634666 V 68.549343 h -2.5396"
       style="fill:#040606;fill-opacity:1;fill-rule:nonzero;stroke:none;stroke-width:0.133333" />
    <path
       id="path413"
       d="m 130.34066,68.549343 3.00867,16.234666 -5.54827,3.634666 V 68.549343 h 2.5396"
       style="fill:#040606;fill-opacity:1;fill-rule:nonzero;stroke:none;stroke-width:0.133333" />
    <path
       id="path414"
       d="m 128.2568,124.26534 c -0.002,0.38 -0.004,0.75733 -0.006,1.132 -0.004,0.376 -0.008,0.75067 -0.012,1.12133 -0.008,0.74267 -0.0161,1.476 -0.024,2.19867 -0.0115,1.444 -0.0391,2.84 -0.0629,4.16267 -0.0125,0.66133 -0.0245,1.30533 -0.0365,1.928 -0.0151,0.62266 -0.0301,1.224 -0.0443,1.80133 -0.026,1.156 -0.0593,2.21467 -0.0901,3.15333 -0.0276,0.93734 -0.0609,1.756 -0.0864,2.42934 -0.024,0.67466 -0.0516,1.204 -0.0667,1.564 -0.0177,0.36133 -0.0265,0.55333 -0.0265,0.55333 0,0 -0.01,-0.192 -0.0271,-0.55333 -0.0152,-0.36 -0.0428,-0.88934 -0.0667,-1.564 -0.0256,-0.67334 -0.0595,-1.492 -0.0865,-2.42934 -0.0301,-0.93866 -0.064,-1.99733 -0.0901,-3.15333 -0.014,-0.57733 -0.0291,-1.17867 -0.0447,-1.80133 -0.0115,-0.62267 -0.0235,-1.26667 -0.036,-1.928 -0.024,-1.32267 -0.0516,-2.71867 -0.0631,-4.16267 -0.008,-0.72267 -0.0161,-1.456 -0.0239,-2.19867 -0.004,-0.37066 -0.008,-0.74533 -0.012,-1.12133 -0.002,-0.37467 -0.004,-0.752 -0.006,-1.132 -0.005,-1.516 -0.009,-3.056 -0.0141,-4.596 0.005,-1.54 0.01,-3.08 0.0147,-4.596 0.006,-1.516 0.0297,-3.00667 0.0427,-4.45067 0.0109,-1.444 0.0401,-2.84 0.0631,-4.16266 0.0125,-0.66267 0.0249,-1.30533 0.0364,-1.92933 0.0156,-0.62134 0.0303,-1.224 0.0443,-1.80134 0.0261,-1.15466 0.06,-2.21333 0.0901,-3.151998 0.0271,-0.938667 0.0604,-1.756 0.086,-2.429333 0.0239,-0.674667 0.0509,-1.204 0.0661,-1.565334 0.0177,-0.361333 0.0271,-0.553333 0.0271,-0.553333 0,0 0.009,0.192 0.0265,0.553333 0.0151,0.361334 0.0421,0.890667 0.0661,1.565334 0.0256,0.673333 0.0589,1.490666 0.086,2.429333 0.0301,0.938668 0.064,1.997338 0.0896,3.151998 0.0145,0.57734 0.0291,1.18 0.0447,1.80134 0.0115,0.624 0.024,1.26666 0.0365,1.92933 0.0229,1.32266 0.0521,2.71866 0.0631,4.16266 0.0129,1.444 0.0369,2.93467 0.0427,4.45067 0.005,1.516 0.009,3.056 0.0145,4.596 -0.005,1.54 -0.009,3.08 -0.014,4.596 z m 3.65053,-34.069331 c -0.10893,0.06667 -0.21667,0.136 -0.32187,0.206666 -1.1204,0.757334 -2.42866,1.157334 -3.7844,1.157334 -1.35626,0 -2.66466,-0.4 -3.78493,-1.157334 -0.1052,-0.07067 -0.21307,-0.14 -0.32187,-0.206666 -0.30986,13.101331 -4.9192,22.717331 -4.9192,38.389331 0,15.09067 9.026,26.79467 9.026,26.79467 0,0 9.0256,-11.704 9.0256,-26.79467 0,-15.672 -4.60946,-25.288 -4.91933,-38.389331"
       style="fill:#040606;fill-opacity:1;fill-rule:nonzero;stroke:none;stroke-width:0.133333" />
  </g>
</svg>
